<svg xmlns="http://www.w3.org/2000/svg" xmlns:xlink="http://www.w3.org/1999/xlink" viewBox="0 0 70 70" width="70" height="70">
	<style type="text/css">
		.num_path1{fill:currentColor;stroke:currentColor;stroke-miterlimit:10;}
		.num_path2{fill:inherit}
		.grey{
			fill: #EFEFEF;
			color: #878787;
		}
		.color{
			fill: #fff;
			color: #2F8AEC;
		}
	</style>
	<defs>
		<symbol id="sym_star">
			<path d="M10 1L7.1 6.9l-6.3.9s-.1 0-.1.1V8l4.6 4.5-1.1 6.4v.1h.2l5.6-3 5.6 3h.2s.1-.1 0-.1l-1.1-6.4L19.3 8v-.1s0-.1-.1-.1l-6.3-.9"/>
		</symbol>
		<symbol id="sym_moon">
			<path d="M12.4 2.9c.4.3.8.6 1.1 1 2.7 3.2 2.9 7.8 0 10.8-1.4 1.4-3.2 2.2-5.2 2.2s-4-.8-5.5-2.5c0 0-.1-.1 0-.2 0 0 .1-.1.2 0 1.2.8 2.5 1.2 3.8 1.2 1.9 0 3.7-.8 5-2.2 2.7-2.8 2-6.8.3-10.1-.1-.2 0-.3.1-.3s.2.1.2.1z"/>
		</symbol>
		<symbol id="sym_year">
			<path d="M23.5 14h.8l-.1.8H21.8s-.3 1.5-.3 1.7h-.9c.1-.2.3-1.7.3-1.7h-3.2l.1-.8H19s.3-1.8.3-1.9h2l.1-.9H20c-.5.6-.9 1-1.4 1.4-.2-.3-.2-.4-.4-.6.8-.6 1.3-1.1 1.7-1.8.1-.2.3-.5.3-.5l.8.1s-.2.3-.4.7h4l-.1.7h-2.2l-.1.9H24.1l-.1.7h-1.9l-.2 1.2h1.6zm-2.3-1.2H20l-.2 1.2H21l.2-1.2z"/> 
		</symbol>
		<symbol id="sym_board">
			<path class="path_board" d="M12.8 7.4h16l-2.4 10.8H15.2L12.8 7.4z"/>
		</symbol>
		<symbol id="sym_num1">
			<path class="num_path1" d="M6.6,8.7H2.3l0.3-1.1h1.4l0.8-3.5H3.3L3.6,3C3.8,3,4,3,4.2,3c0.2,0,0.4-0.1,0.5-0.1 C4.8,2.8,5,2.7,5.1,2.6c0.1-0.1,0.2-0.3,0.2-0.5h1.5L5.5,7.5h1.3L6.6,8.7z"/>
			<path  class="num_path2" d="M6.6,8.7H2.3l0.3-1.1h1.4l0.8-3.5H3.3L3.6,3C3.8,3,4,3,4.2,3c0.2,0,0.4-0.1,0.5-0.1 C4.8,2.8,5,2.7,5.1,2.6c0.1-0.1,0.2-0.3,0.2-0.5h1.5L5.5,7.5h1.3L6.6,8.7z"/>
		</symbol>
		<symbol id="sym_num2">
			<path class="num_path1" d="M7,8.7H1.9l0.3-1.1C2.6,7.3,3.1,7,3.5,6.7c0.4-0.3,0.8-0.6,1.1-0.8c0.5-0.4,0.8-0.7,1-1 C5.8,4.6,5.9,4.3,5.9,4c0-0.3-0.1-0.4-0.3-0.6C5.5,3.3,5.3,3.3,5,3.3C4.7,3.3,4.4,3.3,4,3.4C3.7,3.5,3.4,3.7,3.1,3.9H3l0.3-1.5 c0.2-0.1,0.5-0.2,1-0.3C4.7,2.1,5.1,2,5.5,2c0.7,0,1.2,0.1,1.6,0.4s0.6,0.6,0.6,1.2c0,0.5-0.1,1-0.4,1.4C7,5.4,6.6,5.8,6,6.3 C5.7,6.6,5.4,6.8,5.1,7C4.8,7.1,4.6,7.3,4.4,7.4h2.9L7,8.7z"/>
			<path class="num_path2" d="M7,8.7H1.9l0.3-1.1C2.6,7.3,3.1,7,3.5,6.7c0.4-0.3,0.8-0.6,1.1-0.8c0.5-0.4,0.8-0.7,1-1 C5.8,4.6,5.9,4.3,5.9,4c0-0.3-0.1-0.4-0.3-0.6C5.5,3.3,5.3,3.3,5,3.3C4.7,3.3,4.4,3.3,4,3.4C3.7,3.5,3.4,3.7,3.1,3.9H3l0.3-1.5 c0.2-0.1,0.5-0.2,1-0.3C4.7,2.1,5.1,2,5.5,2c0.7,0,1.2,0.1,1.6,0.4s0.6,0.6,0.6,1.2c0,0.5-0.1,1-0.4,1.4C7,5.4,6.6,5.8,6,6.3 C5.7,6.6,5.4,6.8,5.1,7C4.8,7.1,4.6,7.3,4.4,7.4h2.9L7,8.7z"/>
		</symbol>
		<symbol id="sym_num3">
			<path class="num_path1" d="M6.5,8.2c-0.3,0.2-0.6,0.4-1,0.5C5.1,8.8,4.7,8.8,4.2,8.8c-0.5,0-1,0-1.4-0.1 c-0.4-0.1-0.8-0.2-1-0.3l0.3-1.4l0.2,0c0.3,0.2,0.6,0.3,0.9,0.5c0.3,0.1,0.7,0.2,1,0.2c0.5,0,0.8-0.1,1.1-0.3 c0.3-0.2,0.4-0.4,0.4-0.8c0-0.1,0-0.2-0.1-0.3C5.5,6.1,5.4,6,5.3,6C5.2,5.9,5.1,5.9,4.9,5.9s-0.4,0-0.6,0H3.9l0.3-1.2h0.4 c0.6,0,1-0.1,1.3-0.2s0.4-0.3,0.4-0.6c0-0.2-0.1-0.4-0.3-0.5C5.6,3.3,5.3,3.3,5,3.3c-0.3,0-0.6,0-1,0.1C3.7,3.5,3.4,3.6,3.1,3.8 L3,3.8l0.3-1.4c0.3-0.1,0.6-0.2,1-0.2C4.6,2,5,2,5.4,2c0.4,0,0.7,0,1,0.1c0.3,0.1,0.5,0.1,0.8,0.3c0.2,0.1,0.4,0.3,0.5,0.5 C7.8,3,7.8,3.2,7.8,3.5c0,0.3,0,0.5-0.1,0.7C7.6,4.4,7.5,4.6,7.3,4.7C7.2,4.8,7,5,6.8,5S6.4,5.2,6.3,5.2l0,0.1 C6.6,5.3,6.8,5.5,7,5.7c0.2,0.2,0.3,0.5,0.3,0.8c0,0.4-0.1,0.7-0.2,1C7,7.7,6.7,8,6.5,8.2z"/> 
			<path class="num_path2" d="M6.5,8.2c-0.3,0.2-0.6,0.4-1,0.5C5.1,8.8,4.7,8.8,4.2,8.8c-0.5,0-1,0-1.4-0.1 c-0.4-0.1-0.8-0.2-1-0.3l0.3-1.4l0.2,0c0.3,0.2,0.6,0.3,0.9,0.5c0.3,0.1,0.7,0.2,1,0.2c0.5,0,0.8-0.1,1.1-0.3 c0.3-0.2,0.4-0.4,0.4-0.8c0-0.1,0-0.2-0.1-0.3C5.5,6.1,5.4,6,5.3,6C5.2,5.9,5.1,5.9,4.9,5.9s-0.4,0-0.6,0H3.9l0.3-1.2h0.4 c0.6,0,1-0.1,1.3-0.2s0.4-0.3,0.4-0.6c0-0.2-0.1-0.4-0.3-0.5C5.6,3.3,5.3,3.3,5,3.3c-0.3,0-0.6,0-1,0.1C3.7,3.5,3.4,3.6,3.1,3.8 L3,3.8l0.3-1.4c0.3-0.1,0.6-0.2,1-0.2C4.6,2,5,2,5.4,2c0.4,0,0.7,0,1,0.1c0.3,0.1,0.5,0.1,0.8,0.3c0.2,0.1,0.4,0.3,0.5,0.5 C7.8,3,7.8,3.2,7.8,3.5c0,0.3,0,0.5-0.1,0.7C7.6,4.4,7.5,4.6,7.3,4.7C7.2,4.8,7,5,6.8,5S6.4,5.2,6.3,5.2l0,0.1 C6.6,5.3,6.8,5.5,7,5.7c0.2,0.2,0.3,0.5,0.3,0.8c0,0.4-0.1,0.7-0.2,1C7,7.7,6.7,8,6.5,8.2z"/> 
		</symbol>
		<symbol id="sym_num4">
			<path class="num_path1" d="M7.5,7.2H6.6L6.2,8.7H4.6L5,7.2H1.8l0.3-1.2L6,2.1h1.7L6.9,6h0.9L7.5,7.2z M5.2,6l0.5-2.3 L3.4,6H5.2z"/>
			<path class="num_path2" d="M7.5,7.2H6.6L6.2,8.7H4.6L5,7.2H1.8l0.3-1.2L6,2.1h1.7L6.9,6h0.9L7.5,7.2z M5.2,6l0.5-2.3 L3.4,6H5.2z"/>
		</symbol>
		<symbol id="sym_num5">
			<path class="num_path1" d="M6.5,8.2c-0.3,0.2-0.6,0.4-1,0.5S4.6,8.8,4.2,8.8c-0.5,0-1,0-1.4-0.1C2.4,8.6,2.1,8.5,1.9,8.4 L2.2,7h0.2c0.3,0.2,0.6,0.3,0.8,0.4c0.3,0.1,0.6,0.1,0.9,0.1c0.5,0,0.9-0.1,1.1-0.3c0.3-0.2,0.4-0.4,0.4-0.8 c0-0.3-0.1-0.5-0.4-0.6C5.1,5.7,4.7,5.6,4.2,5.6c-0.2,0-0.4,0-0.7,0.1S3.1,5.8,2.9,5.8H2.7l0.9-3.7h4.7L7.9,3.4H4.9L4.6,4.5 c0,0,0.1,0,0.2,0c0.1,0,0.1,0,0.2,0c0.3,0,0.6,0,0.9,0.1c0.3,0.1,0.6,0.2,0.8,0.3C7,5,7.1,5.2,7.3,5.4s0.2,0.5,0.2,0.8 c0,0.4-0.1,0.8-0.3,1.2C7,7.7,6.8,8,6.5,8.2z"/> 
			<path class="num_path2" d="M6.5,8.2c-0.3,0.2-0.6,0.4-1,0.5S4.6,8.8,4.2,8.8c-0.5,0-1,0-1.4-0.1C2.4,8.6,2.1,8.5,1.9,8.4 L2.2,7h0.2c0.3,0.2,0.6,0.3,0.8,0.4c0.3,0.1,0.6,0.1,0.9,0.1c0.5,0,0.9-0.1,1.1-0.3c0.3-0.2,0.4-0.4,0.4-0.8 c0-0.3-0.1-0.5-0.4-0.6C5.1,5.7,4.7,5.6,4.2,5.6c-0.2,0-0.4,0-0.7,0.1S3.1,5.8,2.9,5.8H2.7l0.9-3.7h4.7L7.9,3.4H4.9L4.6,4.5 c0,0,0.1,0,0.2,0c0.1,0,0.1,0,0.2,0c0.3,0,0.6,0,0.9,0.1c0.3,0.1,0.6,0.2,0.8,0.3C7,5,7.1,5.2,7.3,5.4s0.2,0.5,0.2,0.8 c0,0.4-0.1,0.8-0.3,1.2C7,7.7,6.8,8,6.5,8.2z"/> 
		</symbol>
		<symbol id="sym_num6">
			<path class="num_path1" d="M4.7,8.8c-0.4,0-0.7,0-1-0.1C3.4,8.6,3.1,8.5,2.9,8.3S2.5,7.9,2.4,7.6s-0.2-0.6-0.2-1 c0-0.7,0.1-1.3,0.3-1.8c0.2-0.5,0.5-1,0.8-1.4c0.3-0.4,0.8-0.7,1.3-0.9S5.7,2,6.4,2c0.2,0,0.5,0,0.8,0.1c0.3,0,0.5,0.1,0.6,0.1 L7.5,3.5l-0.2,0C7.3,3.4,7.2,3.4,7,3.3C6.8,3.2,6.5,3.2,6.3,3.2C5.8,3.2,5.3,3.3,5,3.6S4.4,4.2,4.2,4.7c0.2-0.1,0.5-0.2,0.7-0.3 c0.3-0.1,0.5-0.1,0.8-0.1c0.6,0,1,0.2,1.4,0.5c0.3,0.3,0.5,0.7,0.5,1.3c0,0.8-0.3,1.5-0.8,2C6.2,8.6,5.5,8.8,4.7,8.8z M5.9,6.3 c0-0.3-0.1-0.5-0.3-0.7S5.1,5.4,4.8,5.4c-0.1,0-0.3,0-0.4,0S4.1,5.6,4,5.6C4,5.7,4,5.9,3.9,6c0,0.2,0,0.3,0,0.5 c0,0.4,0.1,0.7,0.2,0.9c0.1,0.2,0.4,0.3,0.7,0.3c0.3,0,0.5-0.1,0.8-0.4C5.8,7.1,5.9,6.7,5.9,6.3z"/>
			<path class="num_path2" d="M4.7,8.8c-0.4,0-0.7,0-1-0.1C3.4,8.6,3.1,8.5,2.9,8.3S2.5,7.9,2.4,7.6s-0.2-0.6-0.2-1 c0-0.7,0.1-1.3,0.3-1.8c0.2-0.5,0.5-1,0.8-1.4c0.3-0.4,0.8-0.7,1.3-0.9S5.7,2,6.4,2c0.2,0,0.5,0,0.8,0.1c0.3,0,0.5,0.1,0.6,0.1 L7.5,3.5l-0.2,0C7.3,3.4,7.2,3.4,7,3.3C6.8,3.2,6.5,3.2,6.3,3.2C5.8,3.2,5.3,3.3,5,3.6S4.4,4.2,4.2,4.7c0.2-0.1,0.5-0.2,0.7-0.3 c0.3-0.1,0.5-0.1,0.8-0.1c0.6,0,1,0.2,1.4,0.5c0.3,0.3,0.5,0.7,0.5,1.3c0,0.8-0.3,1.5-0.8,2C6.2,8.6,5.5,8.8,4.7,8.8z M5.9,6.3 c0-0.3-0.1-0.5-0.3-0.7S5.1,5.4,4.8,5.4c-0.1,0-0.3,0-0.4,0S4.1,5.6,4,5.6C4,5.7,4,5.9,3.9,6c0,0.2,0,0.3,0,0.5 c0,0.4,0.1,0.7,0.2,0.9c0.1,0.2,0.4,0.3,0.7,0.3c0.3,0,0.5-0.1,0.8-0.4C5.8,7.1,5.9,6.7,5.9,6.3z"/> 
		</symbol>
		<symbol id="sym_num7">
			<path class="num_path1" d="M8.1,3.4L4,8.7H2.1l4.3-5.3H3l0.3-1.2h5.1L8.1,3.4z"/>
			<path class="num_path2" d="M8.1,3.4L4,8.7H2.1l4.3-5.3H3l0.3-1.2h5.1L8.1,3.4z"/>
		</symbol>
	</defs>
	<defs>
		<g id="icon_vip">
			<use xlink:href="#sym_star" x="0" y="0" fill="#41A4F3"></use>
			<use xlink:href="#sym_moon" x="0" y="0" fill="#ffb000"></use>
		</g>
		<g id="icon_vipyear">
			<use xlink:href="#sym_board" x="0" y="0" style="fill:#e0f2ff;stroke:#2f8aec;stroke-linejoin:round"></use>
			<use xlink:href="#sym_star" x="0" y="0" fill="#41A4F3"></use>
			<use xlink:href="#sym_moon" x="0" y="0" fill="#ffb000"></use>
			<use xlink:href="#sym_year" x="0" y="0" fill="#2f8aec"></use>
		</g>
		<g id="icon_vip_grey">
			<use xlink:href="#sym_star" x="0" y="0" fill="#A7A7A7"></use>
			<use xlink:href="#sym_moon" x="0" y="0" style="fill:#ECECEC;stroke:#7a7a7a;stroke-width:0.5;stroke-miterlimit:0.5;"></use>
		</g>
		<g id="icon_vipyear_grey">
			<use xlink:href="#sym_board" x="0" y="0" style="fill:#ECECEC;stroke:#7a7a7a;stroke-linejoin:round"></use>
			<use xlink:href="#sym_star" x="0" y="0" fill="#A7A7A7"></use>
			<use xlink:href="#sym_moon" x="0" y="0" style="fill:#ECECEC;stroke:#7a7a7a;stroke-width:0.5;stroke-miterlimit:0.5;"></use>
			<use xlink:href="#sym_year" x="0" y="0" fill="#7a7a7a"></use>
		</g>
	</defs>
	
	<use xlink:href="#icon_vip" x="0" y="0"></use>
	<use xlink:href="#icon_vipyear" x="22" y="0"></use>
	<use xlink:href="#icon_vip_grey" x="0" y="22"></use>
	<use xlink:href="#icon_vipyear_grey" x="22" y="22"></use>

	<use class="color" xlink:href="#sym_num1" x="0" y="46"></use>
	<use class="color" xlink:href="#sym_num2" x="10" y="46"></use>
	<use class="color" xlink:href="#sym_num3" x="20" y="46"></use>
	<use class="color" xlink:href="#sym_num4" x="30" y="46"></use>
	<use class="color" xlink:href="#sym_num5" x="40" y="46"></use>
	<use class="color" xlink:href="#sym_num6" x="50" y="46"></use>
	<use class="color" xlink:href="#sym_num7" x="60" y="46"></use>
	<use class="grey" xlink:href="#sym_num1" x="0" y="58"></use>
	<use class="grey" xlink:href="#sym_num2" x="10" y="58"></use>
	<use class="grey" xlink:href="#sym_num3" x="20" y="58"></use>
	<use class="grey" xlink:href="#sym_num4" x="30" y="58"></use>
	<use class="grey" xlink:href="#sym_num5" x="40" y="58"></use>
	<use class="grey" xlink:href="#sym_num6" x="50" y="58"></use>
	<use class="grey" xlink:href="#sym_num7" x="60" y="58"></use>
</svg>